<svg xmlns="http://www.w3.org/2000/svg" width="105.333" height="64" viewBox="0 0 79 48" xmlns:v="https://vecta.io/nano"><path d="M49.382 24.336h6.98c.352 0 .762.043 1.051-.195.266-.211.641-1.059.836-1.402l1.836-3.441c.223-.398.992-1.688.93-2.09-.07-.461-1.562-1.816-1.961-2.215-.336-.34-1.543-1.695-1.953-1.695-.305 0-.543.367-.699.59l-1.348 1.965-5.672 8.484zm-6.367 0h1.836c.203 0 .512.012.695-.066.379-.168 1.16-1.496 1.426-1.898l4-6.148 1.738-2.582c.184-.297.535-.75.43-1.109-.078-.27-.496-.656-.695-.859l-1.715-1.723-2.449-2.457c-.238-.238-.758-.836-1.098-.836-.27 0-.477.281-.629.469l-1.195 1.598-2.254 3.195c-.086.242-.086.484-.09.738v4.18 7.5zM40.69-.011l-4.164 4.184 4.164 4.305 4.285-4.184-2.082-2.211L40.69-.011zm-2.207 24.348v-7.5-4.18c-.004-.273-.004-.48-.113-.738l-2.227-3.074c-.27-.355-1.422-1.953-1.719-2.07-.41-.156-.824.34-1.082.594l-2.695 2.707-1.711 1.723c-.203.203-.621.59-.699.859-.109.367.258.805.445 1.105l1.68 2.582 3.918 6.027c.27.402 1.051 1.73 1.43 1.898.195.086.594.066.816.066h1.957zm-6.609 0l-5.43-8.113-1.387-2.09c-.145-.219-.457-.742-.691-.84-.41-.172-.926.457-1.187.715l-2.324 2.336c-.305.316-.691.625-.598 1.109.066.344.777 1.594.98 1.965l1.77 3.32c.195.344.57 1.191.832 1.402.293.238.703.195 1.055.195h6.98zm35.504 6.82c-2.496.461-4.594 1.789-5.758 4.125-1.863 3.746-.699 8.453 2.941 10.625 1.043.621 2.336 1.043 3.551 1.059 1.867.02 2.816.016 4.531-.875 4.344-2.258 5.543-8.387 2.41-12.16-1.93-2.328-4.75-3.152-7.676-2.773zm.246 1.582c1.773-.18 3.285-.031 4.773 1.043 3.836 2.758 3.434 9.52-1.59 11.328-.664.238-1.5.313-2.203.289-.992-.039-1.801-.16-2.695-.633-5.168-2.742-4.156-10.914 1.715-12.027zM45.71 31.348l1.516 3.813 3.328 7.992 1.082 2.582c.219.543.273.922.93.977.227.02.602.012.797-.117.238-.164.437-.711.547-.984l.965-2.336 3.324-7.992 1.59-3.934h-.98c-.27 0-.695-.027-.93.125-.367.246-1.035 2.188-1.254 2.703l-2.273 5.531-1.539 3.938-3.895-9.348-.809-1.965-.492-.859-.93-.125h-.977zM31.995 46.719c.457 0 1.664.113 1.984-.199.23-.227.949-2.188 1.125-2.629.133-.328.277-.793.59-.98.25-.152.668-.129.953-.129h5.02c.281 0 .703-.023.949.129.281.176.465.676.594.98.187.449.898 2.402 1.129 2.629.316.312 1.523.199 1.98.199l-1.66-4.059-3.555-8.484-1.148-2.828-1.508.121-.523.984-1.031 2.461-3.355 7.992-1.543 3.813zm7.223-12.543l2.941 7.133h-6l2.047-4.918 1.012-2.215zm-19.586-2.828v1.477h8.203l-6.781 9.344-1.531 2.09-.934 1.477-.063.984h12v-1.477h-9.426l2.187-2.949 4.59-6.273 1.703-2.336.762-1.23.063-1.105H19.632zM2.245 46.719c.457 0 1.664.113 1.98-.199.23-.227.949-2.188 1.129-2.629.129-.328.273-.793.59-.98.25-.152.668-.129.953-.129h5.02c.281 0 .703-.023.945.129.285.176.469.676.594.98.188.449.898 2.402 1.133 2.629.316.312 1.523.199 1.98.199l-1.664-4.059-3.551-8.484-1.152-2.828-1.504.121-.527.984-1.027 2.461-3.359 7.992-1.539 3.813zm7.223-12.543l2.937 7.133h-6l2.051-4.918 1.012-2.215zm0 0" stroke="#333" stroke-width=".123"/></svg>