<?xml version="1.0" encoding="UTF-8" standalone="no"?>
<svg
   xmlns:dc="http://purl.org/dc/elements/1.1/"
   xmlns:cc="http://creativecommons.org/ns#"
   xmlns:rdf="http://www.w3.org/1999/02/22-rdf-syntax-ns#"
   xmlns:svg="http://www.w3.org/2000/svg"
   xmlns="http://www.w3.org/2000/svg"
   xmlns:sodipodi="http://sodipodi.sourceforge.net/DTD/sodipodi-0.dtd"
   xmlns:inkscape="http://www.inkscape.org/namespaces/inkscape"
   width="79pt"
   height="48pt"
   viewBox="0 0 79 48"
   version="1.1"
   id="svg17456"
   sodipodi:docname="azavo-logo_2021.svg"
   inkscape:version="0.92.4 (5da689c313, 2019-01-14)">
  <metadata
     id="metadata17462">
    <rdf:RDF>
      <cc:Work
         rdf:about="">
        <dc:format>image/svg+xml</dc:format>
        <dc:type
           rdf:resource="http://purl.org/dc/dcmitype/StillImage" />
        <dc:title></dc:title>
      </cc:Work>
    </rdf:RDF>
  </metadata>
  <defs
     id="defs17460" />
  <sodipodi:namedview
     pagecolor="#ffffff"
     bordercolor="#666666"
     borderopacity="1"
     objecttolerance="10"
     gridtolerance="10"
     guidetolerance="10"
     inkscape:pageopacity="0"
     inkscape:pageshadow="2"
     inkscape:window-width="1920"
     inkscape:window-height="1017"
     id="namedview17458"
     showgrid="false"
     inkscape:zoom="11.313709"
     inkscape:cx="50.693391"
     inkscape:cy="28.150198"
     inkscape:window-x="-8"
     inkscape:window-y="-8"
     inkscape:window-maximized="1"
     inkscape:current-layer="svg17456" />
  <g
     id="surface1"
     style="fill:#000000;fill-opacity:1"
     transform="translate(0.53033008,-0.13258252)">
    <path
       style="fill:#000000;fill-opacity:1;fill-rule:nonzero;stroke:#333333;stroke-width:1;stroke-linecap:butt;stroke-linejoin:miter;stroke-miterlimit:4;stroke-opacity:1"
       d="m 399.00196,198.98454 c 0,0 57.01395,0 57.01395,0 2.87144,0 6.22145,0.34943 8.58241,-1.58832 2.16953,-1.71538 5.23239,-8.60869 6.82763,-11.40414 0,0 14.99528,-27.98621 14.99528,-27.98621 1.81857,-3.24017 8.10383,-13.72309 7.59335,-16.99503 -0.57429,-3.74844 -12.76194,-14.77138 -16.01623,-18.01155 -2.74382,-2.76368 -12.60241,-13.78663 -15.95242,-13.78663 -2.48858,0 -4.43477,2.98605 -5.71097,4.79673 0,0 -11.00717,15.97851 -11.00717,15.97851 0,0 -46.32583,68.99664 -46.32583,68.99664 z m -52.00489,0 c 0,0 14.99527,0 14.99527,0 1.65905,0 4.17954,0.0953 5.67907,-0.54003 3.09476,-1.36595 9.47573,-12.16653 11.64526,-15.43847 0,0 32.67056,-50.00034 32.67056,-50.00034 0,0 14.19766,-20.99759 14.19766,-20.99759 1.49952,-2.41425 4.37096,-6.09915 3.50953,-9.02166 -0.6381,-2.19189 -4.05192,-5.336762 -5.67906,-6.988615 0,0 -14.00623,-14.008988 -14.00623,-14.008988 0,0 -20.00434,-19.981074 -20.00434,-19.981074 -1.94619,-1.937751 -6.18953,-6.798012 -8.96526,-6.798012 -2.20143,0 -3.89239,2.287182 -5.13668,3.81197 0,0 -9.76288,12.992462 -9.76288,12.992462 -3.06286,4.066101 -17.29242,22.871817 -18.40909,25.984926 -0.70191,1.969517 -0.70191,3.939031 -0.73381,6.003851 0,0 0,33.99006 0,33.99006 0,0 0,60.99151 0,60.99151 z M 328.01369,0.984495 c 0,0 -34.01057,34.021828 -34.01057,34.021828 0,0 34.01057,35.006586 34.01057,35.006586 0,0 34.99961,-34.021827 34.99961,-34.021827 0,0 -17.00528,-17.97979 -17.00528,-17.97979 0,0 -17.99433,-17.026797 -17.99433,-17.026797 z M 309.98745,198.98454 c 0,0 0,-60.99151 0,-60.99151 0,0 0,-33.99006 0,-33.99006 -0.0319,-2.22365 -0.0319,-3.90727 -0.92524,-6.003851 0,0 -18.18576,-25.000167 -18.18576,-25.000167 -2.20144,-2.890743 -11.61336,-15.883206 -14.03813,-16.836198 -3.35001,-1.270657 -6.73192,2.763677 -8.83764,4.828494 0,0 -22.01434,22.014124 -22.01434,22.014124 0,0 -13.97433,14.008988 -13.97433,14.008988 -1.65905,1.651853 -5.07287,4.79673 -5.71096,6.98861 -0.89334,2.98604 2.10572,6.54388 3.63715,8.98989 0,0 13.71908,20.9976 13.71908,20.9976 0,0 32.00056,49.01558 32.00056,49.01558 2.20143,3.27194 8.5824,14.07252 11.67717,15.43847 1.59524,0.69887 4.84954,0.54003 6.66811,0.54003 0,0 15.98433,0 15.98433,0 z m -53.98299,0 c 0,0 -44.34774,-65.97884 -44.34774,-65.97884 0,0 -11.32621,-16.99502 -11.32621,-16.99502 -1.18048,-1.77892 -3.73287,-6.03562 -5.64716,-6.82978 -3.35001,-1.39773 -7.56145,3.71667 -9.69907,5.81325 0,0 -18.98338,18.99631 -18.98338,18.99631 -2.48858,2.57308 -5.64716,5.08263 -4.88145,9.02166 0.54239,2.79545 6.34907,12.9607 8.00812,15.97851 0,0 14.45289,27.00145 14.45289,27.00145 1.59525,2.79545 4.65811,9.68876 6.79573,11.40414 2.39287,1.93775 5.74288,1.58832 8.61431,1.58832 0,0 57.01396,0 57.01396,0 z m 289.98311,55.46416 c -20.38719,3.74844 -37.52009,14.54902 -47.02774,33.54533 -15.21861,30.46399 -5.71096,68.74252 24.02435,86.40464 8.51859,5.05086 19.07909,8.48164 29.0015,8.6087 15.25052,0.15883 23.00339,0.12707 37.00962,-7.11567 35.47818,-18.36099 45.27297,-68.20249 19.68529,-98.88885 -15.761,-18.93278 -38.79629,-25.63549 -62.69302,-22.55415 z m 2.01001,12.8654 c 14.48479,-1.46126 26.83197,-0.25413 38.98771,8.48163 31.33056,22.42709 28.04436,77.41475 -12.98527,92.12259 -5.42382,1.93776 -12.25146,2.54132 -17.99433,2.35072 -8.10383,-0.31766 -14.70813,-1.30242 -22.01434,-5.14616 -42.21011,-22.30002 -33.94675,-88.75536 14.00623,-97.80878 z M 369.01141,256.00525 c 0,0 12.37908,31.00402 12.37908,31.00402 0,0 27.18292,64.99408 27.18292,64.99408 0,0 8.83764,20.9976 8.83764,20.9976 1.78668,4.41553 2.23334,7.49687 7.59336,7.9416 1.85048,0.15884 4.91334,0.0953 6.50858,-0.95299 1.9462,-1.33419 3.57335,-5.78149 4.46668,-8.00513 0,0 7.8805,-18.99632 7.8805,-18.99632 0,0 27.15102,-64.99408 27.15102,-64.99408 0,0 12.98527,-31.98878 12.98527,-31.98878 0,0 -8.00811,0 -8.00811,0 -2.20144,0 -5.67907,-0.22236 -7.59336,1.01653 -2.99905,2.00128 -8.45478,17.78919 -10.24145,21.98236 0,0 -18.56862,44.98124 -18.56862,44.98124 0,0 -12.57051,32.02054 -12.57051,32.02054 0,0 -31.80913,-76.01702 -31.80913,-76.01702 0,0 -6.6043,-15.97851 -6.6043,-15.97851 0,0 -4.02001,-6.98861 -4.02001,-6.98861 0,0 -7.59335,-1.01653 -7.59335,-1.01653 0,0 -7.97621,0 -7.97621,0 z m -112.0179,125.00084 c 3.73286,0 13.59146,0.92122 16.20766,-1.62009 1.88238,-1.84245 7.75287,-17.78919 9.18859,-21.3788 1.08477,-2.66837 2.26525,-6.44858 4.81763,-7.97337 2.04191,-1.23889 5.45573,-1.04829 7.78478,-1.04829 0,0 40.99773,0 40.99773,0 2.29715,0 5.74287,-0.1906 7.75287,1.04829 2.29715,1.42949 3.79668,5.49559 4.84954,7.97337 1.53143,3.65314 7.33811,19.53635 9.2205,21.3788 2.58429,2.54131 12.44289,1.62009 16.17575,1.62009 0,0 -13.55955,-33.00531 -13.55955,-33.00531 0,0 -29.03341,-68.99664 -29.03341,-68.99664 0,0 -9.38002,-22.99889 -9.38002,-22.99889 0,0 -12.31527,0.98476 -12.31527,0.98476 0,0 -4.27525,8.00514 -4.27525,8.00514 0,0 -8.42288,20.01284 -8.42288,20.01284 0,0 -27.40626,64.99408 -27.40626,64.99408 0,0 -12.60241,31.00402 -12.60241,31.00402 z m 58.99205,-102.00195 c 0,0 24.02435,58.00547 24.02435,58.00547 0,0 -49.00584,0 -49.00584,0 0,0 16.71814,-39.99392 16.71814,-39.99392 0,0 8.26335,-18.01155 8.26335,-18.01155 z M 156.01468,256.00525 c 0,0 0,12.00771 0,12.00771 0,0 67.00017,0 67.00017,0 0,0 -55.38681,75.98526 -55.38681,75.98526 0,0 -12.5067,16.99503 -12.5067,16.99503 0,0 -7.62525,12.0077 -7.62525,12.0077 0,0 -0.51048,8.00514 -0.51048,8.00514 0,0 98.01168,0 98.01168,0 0,0 0,-12.00771 0,-12.00771 0,0 -76.98639,0 -76.98639,0 0,0 17.86671,-23.98364 17.86671,-23.98364 0,0 37.48819,-51.01686 37.48819,-51.01686 0,0 13.91051,-18.99631 13.91051,-18.99631 0,0 6.22145,-10.00642 6.22145,-10.00642 0,0 0.51048,-8.9899 0.51048,-8.9899 0,0 -87.99356,0 -87.99356,0 z M 14.006226,381.00609 c 3.732866,0 13.591463,0.92122 16.175755,-1.62009 1.882386,-1.84245 7.752877,-17.78919 9.2205,-21.3788 1.052859,-2.66837 2.233339,-6.44858 4.817631,-7.97337 2.04191,-1.23889 5.455728,-1.04829 7.784781,-1.04829 0,0 40.997723,0 40.997723,0 2.297149,0 5.742872,-0.1906 7.720974,1.04829 2.32905,1.42949 3.82858,5.49559 4.84953,7.97337 1.53144,3.65314 7.33812,19.53635 9.25241,21.3788 2.58429,2.54131 12.44289,1.62009 16.17575,1.62009 0,0 -13.59146,-33.00531 -13.59146,-33.00531 0,0 -29.001501,-68.99664 -29.001501,-68.99664 0,0 -9.411929,-22.99889 -9.411929,-22.99889 0,0 -12.283364,0.98476 -12.283364,0.98476 0,0 -4.307154,8.00514 -4.307154,8.00514 0,0 -8.390974,20.01284 -8.390974,20.01284 0,0 -27.438164,64.99408 -27.438164,64.99408 0,0 -12.570508,31.00402 -12.570508,31.00402 z M 72.99828,279.00414 c 0,0 23.992441,58.00547 23.992441,58.00547 0,0 -49.005838,0 -49.005838,0 0,0 16.750043,-39.99392 16.750043,-39.99392 0,0 8.263354,-18.01155 8.263354,-18.01155 z m 0,0"
       transform="matrix(0.122434,0,0,0.122968,0,3.24207e-5)"
       id="path17453"
       inkscape:connector-curvature="0" />
  </g>
</svg>
