<svg xmlns="http://www.w3.org/2000/svg" viewBox="0 0 512 512" xmlns:v="https://vecta.io/nano"><path d="M511.189 259.954c1.649-3.989.731-8.579-2.325-11.627l-192-192a10.67 10.67 0 0 0-15.083 15.082l173.803 173.803H10.667A10.67 10.67 0 0 0 0 255.88a10.67 10.67 0 0 0 10.667 10.667h464.917L301.803 440.328a10.67 10.67 0 0 0 14.821 15.345c.089-.086.176-.173.262-.262l192-192c.986-.991 1.769-2.165 2.303-3.457z" fill="#2196f3"/><path d="M309.333 458.546a10.67 10.67 0 0 1-10.686-10.648c-.005-2.84 1.123-5.565 3.134-7.571l184.47-184.447-184.47-184.448a10.67 10.67 0 0 1 15.082-15.083l192 192a10.67 10.67 0 0 1 0 15.083l-192 192a10.66 10.66 0 0 1-7.53 3.114z"/><path d="M501.333 266.546H10.667A10.67 10.67 0 0 1 0 255.88a10.67 10.67 0 0 1 10.667-10.667h490.667a10.67 10.67 0 0 1 10.667 10.667 10.67 10.67 0 0 1-10.668 10.666z"/></svg>