<?xml version="1.0" encoding="UTF-8" standalone="no"?>
<!-- Generator: Adobe Illustrator 19.0.0, SVG Export Plug-In . SVG Version: 6.00 Build 0)  -->

<svg
   xmlns:dc="http://purl.org/dc/elements/1.1/"
   xmlns:cc="http://creativecommons.org/ns#"
   xmlns:rdf="http://www.w3.org/1999/02/22-rdf-syntax-ns#"
   xmlns:svg="http://www.w3.org/2000/svg"
   xmlns="http://www.w3.org/2000/svg"
   xmlns:sodipodi="http://sodipodi.sourceforge.net/DTD/sodipodi-0.dtd"
   xmlns:inkscape="http://www.inkscape.org/namespaces/inkscape"
   version="1.1"
   id="Capa_1"
   x="0px"
   y="0px"
   viewBox="0 0 321.2 321.2"
   style="enable-background:new 0 0 321.2 321.2;"
   xml:space="preserve"
   sodipodi:docname="shopping-bag.svg"
   inkscape:version="0.92.4 (5da689c313, 2019-01-14)"><metadata
   id="metadata921"><rdf:RDF><cc:Work
       rdf:about=""><dc:format>image/svg+xml</dc:format><dc:type
         rdf:resource="http://purl.org/dc/dcmitype/StillImage" /><dc:title></dc:title></cc:Work></rdf:RDF></metadata><defs
   id="defs919" /><sodipodi:namedview
   pagecolor="#ffffff"
   bordercolor="#666666"
   borderopacity="1"
   objecttolerance="10"
   gridtolerance="10"
   guidetolerance="10"
   inkscape:pageopacity="0"
   inkscape:pageshadow="2"
   inkscape:window-width="1920"
   inkscape:window-height="1017"
   id="namedview917"
   showgrid="false"
   inkscape:zoom="1.973848"
   inkscape:cx="154.18941"
   inkscape:cy="162.67646"
   inkscape:window-x="-8"
   inkscape:window-y="-8"
   inkscape:window-maximized="1"
   inkscape:current-layer="g882" />
<g
   id="g884"
   style="fill:#353535;fill-opacity:1;stroke:none;stroke-opacity:1">
	<g
   id="g882"
   style="fill:#353535;fill-opacity:1;stroke:none;stroke-opacity:1">
		<path
   d="M306.4,313.2l-24-223.6c-0.4-3.6-3.6-6.4-7.2-6.4h-44.4V69.6c0-38.4-31.2-69.6-69.6-69.6c-38.4,0-69.6,31.2-69.6,69.6    v13.6H46c-3.6,0-6.8,2.8-7.2,6.4l-24,223.6c-0.4,2,0.4,4,1.6,5.6c1.2,1.6,3.2,2.4,5.2,2.4h278c2,0,4-0.8,5.2-2.4    C306,317.2,306.8,315.2,306.4,313.2z M223.6,123.6c3.6,0,6.4,2.8,6.4,6.4c0,3.6-2.8,6.4-6.4,6.4c-3.6,0-6.4-2.8-6.4-6.4    C217.2,126.4,220,123.6,223.6,123.6z M106,69.6c0-30.4,24.8-55.2,55.2-55.2c30.4,0,55.2,24.8,55.2,55.2v13.6H106V69.6z     M98.8,123.6c3.6,0,6.4,2.8,6.4,6.4c0,3.6-2.8,6.4-6.4,6.4c-3.6,0-6.4-2.8-6.4-6.4C92.4,126.4,95.2,123.6,98.8,123.6z M30,306.4    L52.4,97.2h39.2v13.2c-8,2.8-13.6,10.4-13.6,19.2c0,11.2,9.2,20.4,20.4,20.4c11.2,0,20.4-9.2,20.4-20.4c0-8.8-5.6-16.4-13.6-19.2    V97.2h110.4v13.2c-8,2.8-13.6,10.4-13.6,19.2c0,11.2,9.2,20.4,20.4,20.4c11.2,0,20.4-9.2,20.4-20.4c0-8.8-5.6-16.4-13.6-19.2V97.2    H270l22.4,209.2H30z"
   id="path880"
   style="fill:#000000;fill-opacity:1;stroke:none;stroke-opacity:1" />
	</g>
</g>
<g
   id="g886">
</g>
<g
   id="g888">
</g>
<g
   id="g890">
</g>
<g
   id="g892">
</g>
<g
   id="g894">
</g>
<g
   id="g896">
</g>
<g
   id="g898">
</g>
<g
   id="g900">
</g>
<g
   id="g902">
</g>
<g
   id="g904">
</g>
<g
   id="g906">
</g>
<g
   id="g908">
</g>
<g
   id="g910">
</g>
<g
   id="g912">
</g>
<g
   id="g914">
</g>
</svg>