<svg xmlns="http://www.w3.org/2000/svg" viewBox="0 -28 512.001 512" xmlns:v="https://vecta.io/nano"><path d="M256 455.516c-7.289 0-14.316-2.641-19.793-7.437l-58.219-50.074-.09-.078c-51.582-43.957-96.125-81.918-127.117-119.312C16.137 236.809 0 197.172 0 153.871c0-42.07 14.426-80.883 40.617-109.293C67.121 15.832 103.488 0 143.031 0c29.555 0 56.621 9.344 80.445 27.77C235.5 37.07 246.398 48.453 256 61.73c9.605-13.277 20.5-24.66 32.527-33.961C312.352 9.344 339.418 0 368.973 0c39.539 0 75.91 15.832 102.414 44.578C497.578 72.988 512 111.801 512 153.871c0 43.301-16.133 82.938-50.777 124.738-30.992 37.398-75.531 75.355-127.105 119.309l-58.328 50.168c-5.473 4.789-12.504 7.43-19.789 7.43zM143.031 29.992c-31.066 0-59.605 12.398-80.367 34.914-21.07 22.855-32.676 54.449-32.676 88.965 0 36.418 13.535 68.988 43.883 105.605 29.332 35.395 72.961 72.574 123.477 115.625l.094.078 58.516 50.332 58.707-50.418c50.512-43.051 94.137-80.223 123.469-115.617 30.344-36.617 43.879-69.187 43.879-105.605 0-34.516-11.605-66.109-32.676-88.965-20.758-22.516-49.301-34.914-80.363-34.914-22.758 0-43.652 7.234-62.102 21.5-16.441 12.719-27.895 28.797-34.609 40.047A18.78 18.78 0 0 1 256 100.777a18.78 18.78 0 0 1-16.262-9.238c-6.711-11.25-18.164-27.328-34.609-40.047-18.449-14.266-39.344-21.5-62.098-21.5zm0 0"/></svg>