<svg xmlns="http://www.w3.org/2000/svg" viewBox="0 -28 512 512" xmlns:v="https://vecta.io/nano"><path d="M471.383 44.578C444.879 15.832 408.512 0 368.973 0c-29.555 0-56.621 9.344-80.449 27.77C276.5 37.07 265.605 48.449 256 61.73c-9.602-13.277-20.5-24.66-32.527-33.961C199.648 9.344 172.582 0 143.027 0c-39.539 0-75.91 15.832-102.414 44.578C14.426 72.988 0 111.801 0 153.871c0 43.301 16.137 82.938 50.781 124.742 30.992 37.395 75.535 75.355 127.117 119.313l58.309 50.152c5.477 4.797 12.504 7.438 19.793 7.438a30.03 30.03 0 0 0 19.785-7.43l58.328-50.172c51.574-43.949 96.117-81.906 127.109-119.305C495.867 236.809 512 197.172 512 153.867c0-42.066-14.426-80.879-40.617-109.289zm0 0"/></svg>